HIERARCHY
ROOT Hips
{
	OFFSET -0.001795 -0.223333 0.028219
	CHANNELS 6 Xposition Yposition Zposition Zrotation Yrotation Xrotation 
	JOINT LeftUpLeg
	{
		OFFSET 0.069520 -0.091406 -0.006815
		CHANNELS 3 Zrotation Yrotation Xrotation
		JOINT LeftLeg
		{
			OFFSET 0.034277 -0.375199 -0.004496
			CHANNELS 3 Zrotation Yrotation Xrotation
			JOINT LeftFoot
			{
				OFFSET -0.013596 -0.397961 -0.043693
				CHANNELS 3 Zrotation Yrotation Xrotation
				JOINT LeftToe
				{
					OFFSET 0.026358 -0.055791 0.119288
					CHANNELS 3 Zrotation Yrotation Xrotation
					End Site
					{
						OFFSET 0.000000 0.000000 0.000000
					}
				}
			}
		}
	}
	JOINT RightUpLeg
	{
		OFFSET -0.067670 -0.090522 -0.004320
		CHANNELS 3 Zrotation Yrotation Xrotation
		JOINT RightLeg
		{
			OFFSET -0.038290 -0.382569 -0.008850
			CHANNELS 3 Zrotation Yrotation Xrotation
			JOINT RightFoot
			{
				OFFSET 0.015774 -0.398415 -0.042312
				CHANNELS 3 Zrotation Yrotation Xrotation
				JOINT RightToe
				{
					OFFSET -0.025372 -0.048144 0.123348
					CHANNELS 3 Zrotation Yrotation Xrotation
					End Site
					{
						OFFSET 0.000000 0.000000 0.000000
					}
				}
			}
		}
	}
	JOINT Spine
	{
		OFFSET -0.002533 0.108963 -0.026696
		CHANNELS 3 Zrotation Yrotation Xrotation
		JOINT Spine1
		{
			OFFSET 0.005487 0.135180 0.001092
			CHANNELS 3 Zrotation Yrotation Xrotation
			JOINT Spine2
			{
				OFFSET 0.001457 0.052922 0.025425
				CHANNELS 3 Zrotation Yrotation Xrotation
				JOINT Neck
				{
					OFFSET -0.002778 0.213870 -0.042857
					CHANNELS 3 Zrotation Yrotation Xrotation
					JOINT Head
					{
						OFFSET 0.005152 0.064970 0.051349
						CHANNELS 3 Zrotation Yrotation Xrotation
						End Site
						{
							OFFSET 0.000000 0.000000 0.000000
						}
					}
				}
				JOINT LeftShoulder
				{
					OFFSET 0.078845 0.121749 -0.034090
					CHANNELS 3 Zrotation Yrotation Xrotation
					JOINT LeftArm
					{
						OFFSET 0.090977 0.030469 -0.008868
						CHANNELS 3 Zrotation Yrotation Xrotation
						JOINT LeftForeArm
						{
							OFFSET 0.259612 -0.012772 -0.027456
							CHANNELS 3 Zrotation Yrotation Xrotation
							JOINT LeftHand
							{
								OFFSET 0.249234 0.008986 -0.001171
								CHANNELS 3 Zrotation Yrotation Xrotation
								End Site
								{
									OFFSET 0.000000 0.000000 0.000000
								}
							}
						}
					}
				}
				JOINT RightShoulder
				{
					OFFSET -0.081759 0.118833 -0.038615
					CHANNELS 3 Zrotation Yrotation Xrotation
					JOINT RightArm
					{
						OFFSET -0.096012 0.032551 -0.009143
						CHANNELS 3 Zrotation Yrotation Xrotation
						JOINT RightForeArm
						{
							OFFSET -0.253742 -0.013329 -0.021401
							CHANNELS 3 Zrotation Yrotation Xrotation
							JOINT RightHand
							{
								OFFSET -0.255298 0.007772 -0.005559
								CHANNELS 3 Zrotation Yrotation Xrotation
								End Site
								{
									OFFSET 0.000000 0.000000 0.000000
								}
							}
						}
					}
				}
			}
		}
	}
}
MOTION
Frames: 6
Frame Time: 0.050000
0.000000 0.956425 0.000000 -1.274919 -1.604513 1.806389 4.277888 0.103520 2.879543 -0.785887 0.151990 -2.378252 20.616900 30.310563 35.903784 0.000000 0.000000 0.000000 -2.425205 -0.083222 2.014033 3.250305 -0.319181 1.004175 -10.434534 -22.805210 35.298736 0.000000 0.000000 0.000000 -3.128776 0.107178 -3.970396 5.173054 -0.773694 -22.542685 -0.129176 0.215962 24.325615 0.132732 1.146286 -21.294165 0.000000 0.000000 0.000000 -6.588694 -3.491356 1.209978 -31.269843 -37.501005 3.700716 99.765498 -55.045604 -57.224375 0.000000 0.000000 0.000000 -4.505472 12.821619 4.061806 30.295579 39.544504 4.601883 -86.726427 47.992593 -40.518619 0.000000 0.000000 0.000000 
0.000466 0.956585 -0.000009 -1.528025 -1.481037 2.304836 4.658992 0.103082 3.287180 -0.998732 0.214263 -4.075158 20.477285 30.194138 35.844035 0.000000 0.000000 0.000000 -2.257709 -0.056011 1.586230 2.914774 -0.290513 0.463058 -9.666338 -21.894553 37.008853 0.000000 0.000000 0.000000 -3.810169 0.111616 -5.096867 5.517258 -0.943578 -21.403123 0.442907 0.073066 24.336667 0.461955 0.934413 -21.432431 0.000000 0.000000 0.000000 -9.657783 -2.215161 0.621092 -35.752551 -34.183209 3.626127 102.903709 -64.496020 -69.794091 0.000000 0.000000 0.000000 -1.541422 12.261188 4.104171 35.701647 36.045467 4.932604 -83.931278 58.545912 -48.097097 0.000000 0.000000 0.000000 
0.001173 0.955220 -0.000416 -1.530142 -2.798047 2.437294 4.534568 0.124445 3.283273 -1.171838 0.227870 -3.963217 21.494100 30.978550 36.412258 0.000000 0.000000 0.000000 -2.423921 -0.043040 1.630095 2.347696 -0.243447 -0.567228 -8.471138 -20.783178 37.737108 0.000000 0.000000 0.000000 -2.971515 0.139551 -4.824209 4.992223 -0.762020 -22.317679 -0.433785 1.371569 26.116615 1.451997 0.394340 -21.626886 0.000000 0.000000 0.000000 -13.608190 0.430839 -0.822107 -37.786931 -28.113601 1.889219 100.386510 -78.785330 -82.353559 0.000000 0.000000 0.000000 3.128135 9.883658 3.563153 41.962973 31.245809 4.484399 -74.349075 70.813536 -50.786038 0.000000 0.000000 0.000000 
0.001813 0.955204 -0.000855 -1.545250 -2.592570 3.128698 4.630712 0.074266 2.615000 -1.350418 0.247564 -4.237118 21.420013 30.932847 36.303767 0.000000 0.000000 0.000000 -2.321333 0.004811 0.978863 2.507080 -0.259515 -0.606587 -9.212929 -21.556250 37.108760 0.000000 0.000000 0.000000 -3.485451 0.151449 -5.954021 5.148955 -0.857371 -21.461938 -0.461260 0.357130 26.518759 1.093613 0.487072 -21.858561 0.000000 0.000000 0.000000 -15.789477 3.266391 -2.262520 -41.611879 -21.827717 0.156334 -24.378896 -83.686828 28.492010 0.000000 0.000000 0.000000 5.051546 8.722479 3.140831 47.878373 25.113519 2.959251 -33.434585 76.287199 -21.493506 0.000000 0.000000 0.000000 
0.002260 0.954885 -0.001639 -1.534383 -2.548701 3.477967 4.596504 0.051006 2.236869 -1.356407 0.250343 -4.349302 21.463606 30.987645 36.221533 0.000000 0.000000 0.000000 -1.880348 0.003323 0.771429 1.791780 -0.203257 -1.045984 -9.667806 -22.038892 37.156966 0.000000 0.000000 0.000000 -3.835830 0.148898 -6.298557 5.660210 -1.060342 -20.542651 -1.000610 0.661576 26.592124 1.528786 0.269965 -21.827617 0.000000 0.000000 0.000000 -17.925002 4.247749 -3.075950 -44.604077 -14.298480 -2.356869 -37.465580 -69.287099 31.661467 0.000000 0.000000 0.000000 8.536272 7.901176 2.912687 50.754558 18.062618 0.299554 7.907060 70.353333 9.835728 0.000000 0.000000 0.000000 
0.002566 0.954675 -0.002629 -1.535858 -2.230447 4.094010 4.694651 -0.001664 1.498603 -1.491602 0.261200 -4.447442 21.340345 30.923102 35.994256 0.000000 0.000000 0.000000 -1.875248 0.051650 0.199629 1.825099 -0.204874 -0.957470 -9.376972 -21.710369 36.087999 0.000000 0.000000 0.000000 -3.811807 0.153587 -6.193025 5.395708 -0.995267 -20.323394 -1.144805 0.146977 26.816307 0.987498 0.599073 -22.488986 0.000000 0.000000 0.000000 -19.467931 5.068666 -3.625865 -46.688084 -9.038912 -4.377769 -31.552138 -56.681159 21.521975 0.000000 0.000000 0.000000 10.262121 7.705509 2.816699 52.594562 13.314828 -1.708229 18.787646 58.213099 13.603056 0.000000 0.000000 0.000000 
